<svg id="Layer_1" data-name="Layer 1" xmlns="http://www.w3.org/2000/svg" xmlns:xlink="http://www.w3.org/1999/xlink" viewBox="0 0 386.53 331.73"><defs><style>.cls-1{fill:url(#linear-gradient);}.cls-2{fill:url(#linear-gradient-2);}.cls-3{fill:url(#linear-gradient-3);}.cls-4{opacity:0.8;fill:url(#linear-gradient-4);}.cls-5{fill:url(#linear-gradient-5);}.cls-6{fill:url(#linear-gradient-6);}.cls-7{fill:url(#linear-gradient-7);}.cls-8{fill:url(#linear-gradient-8);}.cls-9{fill:url(#linear-gradient-9);}.cls-10{fill:url(#linear-gradient-10);}.cls-11{fill:url(#linear-gradient-11);}.cls-12{fill:url(#linear-gradient-12);}.cls-13{fill:url(#linear-gradient-13);}.cls-14{fill:url(#linear-gradient-14);}.cls-15{fill:url(#linear-gradient-15);}.cls-16{fill:url(#linear-gradient-16);}</style><linearGradient id="linear-gradient" x1="868.58" y1="1061.08" x2="1137.75" y2="1061.08" gradientUnits="userSpaceOnUse"><stop offset="0" stop-color="#b783ff"/><stop offset="0.54" stop-color="#ae76ff"/><stop offset="1" stop-color="#a467ff"/></linearGradient><linearGradient id="linear-gradient-2" x1="908.31" y1="1024.66" x2="1128.47" y2="1024.66" gradientUnits="userSpaceOnUse"><stop offset="0" stop-color="#6931bc"/><stop offset="0.31" stop-color="#7035c9"/><stop offset="0.88" stop-color="#823eec"/><stop offset="1" stop-color="#8640f4"/></linearGradient><linearGradient id="linear-gradient-3" x1="1077.89" y1="960.69" x2="1125.57" y2="960.69" gradientUnits="userSpaceOnUse"><stop offset="0" stop-color="#ffa37b"/><stop offset="0.15" stop-color="#fe9361"/><stop offset="0.38" stop-color="#fc7e42"/><stop offset="0.6" stop-color="#fb702b"/><stop offset="0.81" stop-color="#fa671e"/><stop offset="1" stop-color="#fa6419"/></linearGradient><linearGradient id="linear-gradient-4" x1="902.37" y1="996.12" x2="1096.54" y2="996.12" gradientUnits="userSpaceOnUse"><stop offset="0" stop-color="#ca1875"/><stop offset="0.18" stop-color="#ca1582"/><stop offset="0.51" stop-color="#c80da5"/><stop offset="0.96" stop-color="#c601dc"/><stop offset="1" stop-color="#c600e2"/></linearGradient><linearGradient id="linear-gradient-5" x1="992.73" y1="938.56" x2="1090.55" y2="938.56" gradientUnits="userSpaceOnUse"><stop offset="0" stop-color="#ff317b"/><stop offset="0.27" stop-color="#ff3588"/><stop offset="0.76" stop-color="#ff41ab"/><stop offset="1" stop-color="#ff48be"/></linearGradient><linearGradient id="linear-gradient-6" x1="889.56" y1="1019.06" x2="1027.84" y2="880.78" gradientUnits="userSpaceOnUse"><stop offset="0" stop-color="#00d341"/><stop offset="0.14" stop-color="#05d441"/><stop offset="0.29" stop-color="#12d73f"/><stop offset="0.44" stop-color="#28dd3d"/><stop offset="0.61" stop-color="#47e539"/><stop offset="0.77" stop-color="#6fee35"/><stop offset="0.94" stop-color="#a0fa30"/><stop offset="1" stop-color="#b3ff2e"/></linearGradient><linearGradient id="linear-gradient-7" x1="872.84" y1="984.93" x2="992.73" y2="984.93" gradientUnits="userSpaceOnUse"><stop offset="0" stop-color="#00a048"/><stop offset="0.1" stop-color="#09a958"/><stop offset="0.26" stop-color="#14b56d"/><stop offset="0.44" stop-color="#1dbe7c"/><stop offset="0.66" stop-color="#22c284"/><stop offset="1" stop-color="#23c487"/></linearGradient><linearGradient id="linear-gradient-8" x1="1096.69" y1="897.06" x2="1131.65" y2="897.06" xlink:href="#linear-gradient"/><linearGradient id="linear-gradient-9" x1="1293.69" y1="1178.61" x2="1320.48" y2="1178.61" gradientTransform="matrix(0.67, 0.2, -0.61, 0.62, 985.95, -55.5)" gradientUnits="userSpaceOnUse"><stop offset="0" stop-color="#52c5ff"/><stop offset="0.22" stop-color="#45c6ff"/><stop offset="0.62" stop-color="#22c7ff"/><stop offset="0.97" stop-color="#00c9ff"/><stop offset="1" stop-color="#a467ff"/></linearGradient><linearGradient id="linear-gradient-10" x1="1412.94" y1="1342.9" x2="1444.19" y2="1342.9" gradientTransform="matrix(0.33, 1.1, -1.22, 0.18, 2017.72, -849.48)" xlink:href="#linear-gradient-2"/><linearGradient id="linear-gradient-11" x1="1014.78" y1="641.45" x2="1046.03" y2="641.45" gradientTransform="matrix(0.85, -0.78, 0.69, 1.02, -368.45, 1294.72)" xlink:href="#linear-gradient-6"/><linearGradient id="linear-gradient-12" x1="1380.37" y1="1194.96" x2="1407.17" y2="1194.96" gradientTransform="matrix(0.67, 0.18, -0.76, 0.55, 1122.41, 160.83)" xlink:href="#linear-gradient-3"/><linearGradient id="linear-gradient-13" x1="1880.44" y1="970.58" x2="1916.84" y2="970.58" gradientTransform="matrix(-0.48, 0.7, -0.74, -0.51, 2626.52, 23)" xlink:href="#linear-gradient-9"/><linearGradient id="linear-gradient-14" x1="1910.62" y1="966.69" x2="1941.87" y2="966.69" gradientTransform="matrix(-0.35, 1.09, -1.1, -0.55, 2653.46, -702.26)" xlink:href="#linear-gradient-5"/><linearGradient id="linear-gradient-15" x1="920.74" y1="1246.05" x2="963.69" y2="1246.05" gradientTransform="matrix(0.92, 0.38, -0.38, 0.92, 443.41, -446.48)" xlink:href="#linear-gradient-3"/><linearGradient id="linear-gradient-16" x1="1320.22" y1="-183.03" x2="1351.24" y2="-183.03" gradientTransform="matrix(-0.18, -0.83, 0.88, -0.19, 1567.08, 2086.04)" xlink:href="#linear-gradient-9"/></defs><path class="cls-1" d="M1131.48,1003.83c27.62,82.43-44.88,97.56-44.88,97.56s12.48,16,16,24.83c2.5,6.23-3.54,6.24-7.28,5.71a50.22,50.22,0,0,0-6-.51c-21.16-.47-45.31-11.62-45.31-11.62-38.43,15.24-177.75,14.29-175.4-81.89a174.94,174.94,0,0,1,4.23-35.57c5.26,18.69,18.68,31.69,35.47,40.39,11.8,22.21,37,27.47,37,27.47s-10.48,13.46-13.45,20.85c-2.1,5.24,3,5.25,6.12,4.81a42.47,42.47,0,0,1,5-.44c17.78-.42,38.05-9.75,38.05-9.75,32.29,12.8,149.31,12,147.34-68.79a152.35,152.35,0,0,0-2.88-26.85A90.67,90.67,0,0,1,1131.48,1003.83Z" transform="translate(-806.23 -834.13)"/><path class="cls-2" d="M1128.45,1016.88c2,80.79-115.05,81.59-147.34,68.79,0,0-20.27,9.33-38.05,9.75a42.47,42.47,0,0,0-5,.44c-3.14.44-8.22.43-6.12-4.81,3-7.39,13.45-20.85,13.45-20.85s-25.23-5.26-37-27.47c35.93,18.63,87.31,17.56,107.28,10.38,0,0,20,10,37.72,11a42.58,42.58,0,0,1,5,.59c3.12.55,8.2.71,6.27-4.6-2.73-7.49-12.77-21.27-12.77-21.27s61.28-10.73,40.34-80.69q-.75-2.48-1.63-4.85c14.34,9,26.68,21,35,36.75A152.35,152.35,0,0,1,1128.45,1016.88Z" transform="translate(-806.23 -834.13)"/><path class="cls-3" d="M1077.89,931.35c18.47,6.62,40,21.18,47.68,58.68-8.34-15.75-20.68-27.72-35-36.75A75.71,75.71,0,0,0,1077.89,931.35Z" transform="translate(-806.23 -834.13)"/><path class="cls-4" d="M1092.18,958.13c20.94,70-40.34,80.69-40.34,80.69s10,13.78,12.77,21.27c1.93,5.31-3.15,5.15-6.27,4.6a42.58,42.58,0,0,0-5-.59c-17.76-1-37.72-11-37.72-11-20,7.18-71.35,8.25-107.28-10.38-6.52-12.3-8.93-29.79-.67-54.47,12.83-38.29,50.57-54.68,85.09-61,28.92,1,67.75,7,97.82,26Q1091.44,955.65,1092.18,958.13Z" transform="translate(-806.23 -834.13)"/><path class="cls-5" d="M1077.89,931.35a75.71,75.71,0,0,1,12.66,21.93c-30.07-19-68.9-25-97.82-26,27.9-5.08,53.7-3.57,62.55-1.68,5.61,1.2,13.76,2.56,22.61,5.73Z" transform="translate(-806.23 -834.13)"/><path class="cls-6" d="M1077.89,931.34c-8.85-3.17-17-4.53-22.61-5.73-8.85-1.89-34.65-3.4-62.55,1.68-17.07-.58-30.69.61-37,2-20.24,4.31-68.26,10.43-82.87,73.09a68.86,68.86,0,0,1-2.28-22.76c4.6-80.68,56.17-85.28,76.09-88.85C963.61,887.69,1042.05,888,1077.89,931.34Z" transform="translate(-806.23 -834.13)"/><path class="cls-7" d="M955.71,929.25c6.33-1.35,19.95-2.54,37-2-34.52,6.29-72.26,22.68-85.09,61-8.26,24.68-5.85,42.17.67,54.47-16.79-8.7-30.21-21.7-35.47-40.39C887.45,939.68,935.47,933.56,955.71,929.25Z" transform="translate(-806.23 -834.13)"/><path class="cls-8" d="M1127.45,881.24s12.18,9.89-4.94,26.66-30.89,9.88-24-13.33S1122.86,875.94,1127.45,881.24Z" transform="translate(-806.23 -834.13)"/><path class="cls-9" d="M1152.93,946.63s-3.6,6.56-15.57,5.56-10.28-7.28,3.68-11.29S1155.16,943.73,1152.93,946.63Z" transform="translate(-806.23 -834.13)"/><path class="cls-10" d="M865,974s-10.48,5.23-19.42-10.6,1-36.24,8-8.16C858.35,974.23,870.13,972.41,865,974Z" transform="translate(-806.23 -834.13)"/><path class="cls-11" d="M954.17,1133s9.27,7.17-1.11,22.09-33.09,14.83-10.84-3.7C957.3,1138.88,950.55,1129.05,954.17,1133Z" transform="translate(-806.23 -834.13)"/><path class="cls-12" d="M1162.89,1074.94s-5,5.81-17.52,4.9-9.57-6.47,6-10S1165.78,1072.37,1162.89,1074.94Z" transform="translate(-806.23 -834.13)"/><path class="cls-13" d="M1010.72,879.38c.81,3.29-.3-10.92-17.59-27.33-24.74-23.48,4.16-25.47,16.84,3.58C1018.48,875.13,1015.84,899.88,1010.72,879.38Z" transform="translate(-806.23 -834.13)"/><path class="cls-14" d="M907.85,891.13s-11.59-1.66-9.93-19.77,21.46-29.22,11.25-2.13C902.25,887.6,913,892.81,907.85,891.13Z" transform="translate(-806.23 -834.13)"/><path class="cls-15" d="M863.27,1053.66s-12.69-5.59-27.4,13.34c-16.64,21.43-55.57,21.94-3.39-10.43C853.36,1043.62,861.07,1047,863.27,1053.66Z" transform="translate(-806.23 -834.13)"/><path class="cls-16" d="M1149.93,1009.9c-2.51-1.44,6.92,6.22,27.2,5.18,29-1.49,13.3,17.53-12.09,8.3C1148,1017.19,1134.26,1001,1149.93,1009.9Z" transform="translate(-806.23 -834.13)"/></svg>